<!-- icon666.com - MILLIONS vector ICONS FREE --><svg version="1.1" id="Capa_1" xmlns="http://www.w3.org/2000/svg" xmlns:xlink="http://www.w3.org/1999/xlink" x="0px" y="0px" viewBox="0 0 460.097 460.097" style="enable-background:new 0 0 460.097 460.097;" xml:space="preserve"><g><g><path d="M231.467,162.817c-53.997,0-97.802,43.71-97.92,97.707c0,5.891,4.776,10.667,10.667,10.667 c5.891,0,10.667-4.776,10.667-10.667c0.118-42.214,34.372-76.373,76.587-76.373c5.891,0,10.667-4.776,10.667-10.667 C242.133,167.593,237.358,162.817,231.467,162.817z"></path></g></g><g><g><path d="M121.173,392.15h-7.467c-5.891,0-10.667,4.776-10.667,10.667s4.776,10.667,10.667,10.667h7.467 c5.891,0,10.667-4.776,10.667-10.667S127.064,392.15,121.173,392.15z"></path></g></g><g><g><path d="M81.707,392.15c-5.655-0.005-10.244,4.576-10.249,10.231c0,0.145,0.003,0.29,0.009,0.436 c0.201,5.644,4.609,10.236,10.24,10.667c5.891,0,10.667-4.776,10.667-10.667S87.598,392.15,81.707,392.15z"></path></g></g><g><g><path d="M456.96,49.75c-4.183-4.183-10.964-4.183-15.147,0l0.213-0.213l-75.733,74.88c-14.947-6.4-32.252,0.528-38.652,15.475 c-0.135,0.315-0.264,0.633-0.388,0.952c-67.476-50.631-163.221-36.975-213.852,30.501 c-50.631,67.476-36.975,163.221,30.501,213.852c3.482,2.612,7.073,5.075,10.765,7.38c-5.103,0.736-8.908,5.084-8.96,10.24 c0,5.891,4.776,10.667,10.667,10.667h75.093C315.777,413.248,384,344.835,384,260.524c-0.033-28.202-7.938-55.835-22.827-79.787 c13.324-3.072,22.78-14.913,22.827-28.587c-0.006-4.049-0.879-8.05-2.56-11.733l75.52-75.52 C461.143,60.714,461.143,53.933,456.96,49.75z M362.667,260.524c-0.116,72.481-58.72,131.275-131.2,131.627 c-72.577,0.118-131.509-58.622-131.626-131.2c-0.118-72.577,58.623-131.509,131.2-131.626 C303.618,129.206,362.549,187.946,362.667,260.524z M354.773,160.044c-4.359,0.004-7.896-3.528-7.9-7.887 c-0.004-4.359,3.527-7.896,7.887-7.9c0.004,0,0.009,0,0.013,0c4.358-0.119,7.987,3.317,8.107,7.674c0,0.002,0,0.004,0,0.006 C362.88,156.414,359.25,160.044,354.773,160.044z"></path></g></g><g><g><path d="M42.24,266.07H10.667C4.776,266.07,0,270.846,0,276.737c0,5.891,4.776,10.667,10.667,10.667H42.24 c5.891,0,10.667-4.776,10.667-10.667C52.907,270.846,48.131,266.07,42.24,266.07z"></path></g></g><g><g><path d="M47.573,306.817H10.667C4.776,306.817,0,311.593,0,317.484c0,5.891,4.776,10.667,10.667,10.667h36.907 c5.891,0,10.667-4.776,10.667-10.667C58.24,311.593,53.464,306.817,47.573,306.817z"></path></g></g><g><g><path d="M65.92,347.99H10.667C4.776,347.99,0,352.766,0,358.657c0,5.891,4.776,10.667,10.667,10.667H65.92 c5.891,0,10.667-4.776,10.667-10.667C76.587,352.766,71.811,347.99,65.92,347.99z"></path></g></g><g><g><path d="M47.573,225.11H10.667C4.776,225.11,0,229.886,0,235.777c0,5.891,4.776,10.667,10.667,10.667h36.907 c5.891,0,10.667-4.776,10.667-10.667C58.24,229.886,53.464,225.11,47.573,225.11z"></path></g></g><g><g><path d="M47.573,184.364H10.667C4.776,184.364,0,189.139,0,195.03c0,5.891,4.776,10.667,10.667,10.667h36.907 c5.891,0,10.667-4.776,10.667-10.667C58.24,189.139,53.464,184.364,47.573,184.364z"></path></g></g></svg>